<?xml version="1.0" encoding="UTF-8" standalone="no"?>

<svg
    xmlns:svg="http://www.w3.org/2000/svg"
    xmlns="http://www.w3.org/2000/svg"
    version="1.1"
    x="0px"
    y="0px"
    width="830px"
    height="443px"
    >

<rect
    x="0"
    y="0"
    width="830"
    height="443"
    stroke="black"
    fill="white"
    stroke-width="1"
    />

<text
    x="10"
    y="35"
    font-family="Arial"
    font-size="36"
    fill="black"
    font-weight="bold"
    >
    Peter J. Murphy
</text>

<ellipse
    cx="415.0"
    cy="221.5"
    rx="405.0"
    ry="162.0"
    stroke="black"
    fill="gray"
    stroke-width="1"
    />

<ellipse
    cx="415.0"
    cy="302.5"
    rx="81.0"
    ry="27.0"
    stroke="black"
    fill="red"
    stroke-width="1"
    />

<circle
    cx="212.5"
    cy="221.5"
    r="108.0"
    stroke="yellow"
    fill="yellow"
    stroke-width="1"
    />

<circle
    cx="212.5"
    cy="221.5"
    r="54.0"
    stroke="black"
    fill="black"
    stroke-width="1"
    />

<line
    x1="273.7"
    y1="221.5"
    x2="313.3"
    y2="221.5"
    stroke="black"
    stroke-width="1"
    />

<line
    x1="272.94652644442243"
    y1="211.92621073953788"
    x2="312.0589847319899"
    y2="205.73140592394472"
    stroke="black"
    stroke-width="1"
    />

<line
    x1="270.7046587972634"
    y1="202.58815994425322"
    x2="308.36649684255144"
    y2="190.3510869670053"
    stroke="black"
    stroke-width="1"
    />

<line
    x1="267.0295992803281"
    y1="193.71578141593974"
    x2="302.3134576381875"
    y2="175.73775762625368"
    stroke="black"
    stroke-width="1"
    />

<line
    x1="262.0118400557468"
    y1="185.52754255970063"
    x2="294.04891303299473"
    y2="162.2512465689187"
    stroke="black"
    stroke-width="1"
    />

<line
    x1="255.77493500861672"
    y1="178.22506499138328"
    x2="283.776363543604"
    y2="150.223636456396"
    stroke="black"
    stroke-width="1"
    />

<line
    x1="248.47245744029937"
    y1="171.9881599442532"
    x2="271.7487534310813"
    y2="139.9510869670053"
    stroke="black"
    stroke-width="1"
    />

<line
    x1="240.28421858406026"
    y1="166.9704007196719"
    x2="258.2622423737463"
    y2="131.68654236181254"
    stroke="black"
    stroke-width="1"
    />

<line
    x1="231.41184005574678"
    y1="163.2953412027366"
    x2="243.6489130329947"
    y2="125.63350315744853"
    stroke="black"
    stroke-width="1"
    />

<line
    x1="222.07378926046212"
    y1="161.05347355557757"
    x2="228.26859407605528"
    y2="121.94101526801012"
    stroke="black"
    stroke-width="1"
    />

<line
    x1="212.5"
    y1="160.3"
    x2="212.5"
    y2="120.7"
    stroke="black"
    stroke-width="1"
    />

<line
    x1="202.92621073953788"
    y1="161.05347355557757"
    x2="196.73140592394475"
    y2="121.94101526801012"
    stroke="black"
    stroke-width="1"
    />

<line
    x1="193.58815994425322"
    y1="163.2953412027366"
    x2="181.3510869670053"
    y2="125.63350315744852"
    stroke="black"
    stroke-width="1"
    />

<line
    x1="184.71578141593974"
    y1="166.9704007196719"
    x2="166.73775762625368"
    y2="131.6865423618125"
    stroke="black"
    stroke-width="1"
    />

<line
    x1="176.52754255970063"
    y1="171.9881599442532"
    x2="153.25124656891873"
    y2="139.9510869670053"
    stroke="black"
    stroke-width="1"
    />

<line
    x1="169.2250649913833"
    y1="178.22506499138328"
    x2="141.22363645639604"
    y2="150.223636456396"
    stroke="black"
    stroke-width="1"
    />

<line
    x1="162.98815994425323"
    y1="185.52754255970063"
    x2="130.95108696700532"
    y2="162.2512465689187"
    stroke="black"
    stroke-width="1"
    />

<line
    x1="157.9704007196719"
    y1="193.71578141593972"
    x2="122.68654236181253"
    y2="175.73775762625368"
    stroke="black"
    stroke-width="1"
    />

<line
    x1="154.2953412027366"
    y1="202.58815994425322"
    x2="116.63350315744853"
    y2="190.3510869670053"
    stroke="black"
    stroke-width="1"
    />

<line
    x1="152.05347355557757"
    y1="211.92621073953785"
    x2="112.94101526801013"
    y2="205.73140592394472"
    stroke="black"
    stroke-width="1"
    />

<line
    x1="151.3"
    y1="221.5"
    x2="111.7"
    y2="221.5"
    stroke="black"
    stroke-width="1"
    />

<line
    x1="152.05347355557757"
    y1="231.07378926046212"
    x2="112.94101526801012"
    y2="237.26859407605525"
    stroke="black"
    stroke-width="1"
    />

<line
    x1="154.2953412027366"
    y1="240.41184005574678"
    x2="116.63350315744852"
    y2="252.6489130329947"
    stroke="black"
    stroke-width="1"
    />

<line
    x1="157.9704007196719"
    y1="249.28421858406026"
    x2="122.68654236181251"
    y2="267.2622423737463"
    stroke="black"
    stroke-width="1"
    />

<line
    x1="162.9881599442532"
    y1="257.47245744029937"
    x2="130.9510869670053"
    y2="280.7487534310813"
    stroke="black"
    stroke-width="1"
    />

<line
    x1="169.22506499138328"
    y1="264.7749350086167"
    x2="141.22363645639598"
    y2="292.77636354360396"
    stroke="black"
    stroke-width="1"
    />

<line
    x1="176.52754255970063"
    y1="271.0118400557468"
    x2="153.2512465689187"
    y2="303.0489130329947"
    stroke="black"
    stroke-width="1"
    />

<line
    x1="184.71578141593972"
    y1="276.0295992803281"
    x2="166.73775762625368"
    y2="311.31345763818746"
    stroke="black"
    stroke-width="1"
    />

<line
    x1="193.58815994425322"
    y1="279.7046587972634"
    x2="181.3510869670053"
    y2="317.36649684255144"
    stroke="black"
    stroke-width="1"
    />

<line
    x1="202.92621073953785"
    y1="281.94652644442243"
    x2="196.73140592394472"
    y2="321.0589847319899"
    stroke="black"
    stroke-width="1"
    />

<line
    x1="212.5"
    y1="282.7"
    x2="212.49999999999997"
    y2="322.3"
    stroke="black"
    stroke-width="1"
    />

<line
    x1="222.07378926046212"
    y1="281.94652644442243"
    x2="228.26859407605525"
    y2="321.0589847319899"
    stroke="black"
    stroke-width="1"
    />

<line
    x1="231.41184005574678"
    y1="279.7046587972634"
    x2="243.64891303299467"
    y2="317.3664968425515"
    stroke="black"
    stroke-width="1"
    />

<line
    x1="240.28421858406026"
    y1="276.0295992803281"
    x2="258.2622423737463"
    y2="311.3134576381875"
    stroke="black"
    stroke-width="1"
    />

<line
    x1="248.47245744029934"
    y1="271.0118400557468"
    x2="271.74875343108124"
    y2="303.04891303299473"
    stroke="black"
    stroke-width="1"
    />

<line
    x1="255.7749350086167"
    y1="264.7749350086167"
    x2="283.77636354360396"
    y2="292.776363543604"
    stroke="black"
    stroke-width="1"
    />

<line
    x1="262.0118400557468"
    y1="257.47245744029937"
    x2="294.0489130329947"
    y2="280.7487534310813"
    stroke="black"
    stroke-width="1"
    />

<line
    x1="267.0295992803281"
    y1="249.28421858406028"
    x2="302.31345763818746"
    y2="267.26224237374635"
    stroke="black"
    stroke-width="1"
    />

<line
    x1="270.7046587972634"
    y1="240.4118400557468"
    x2="308.36649684255144"
    y2="252.64891303299473"
    stroke="black"
    stroke-width="1"
    />

<line
    x1="272.94652644442243"
    y1="231.07378926046215"
    x2="312.0589847319899"
    y2="237.2685940760553"
    stroke="black"
    stroke-width="1"
    />

<circle
    cx="250.68376618407356"
    cy="183.31623381592644"
    r="27.0"
    stroke="white"
    fill="white"
    stroke-width="1"
    />

<circle
    cx="174.31623381592644"
    cy="259.6837661840736"
    r="15.428571428571429"
    stroke="white"
    fill="white"
    stroke-width="1"
    />

<circle
    cx="617.5"
    cy="221.5"
    r="108.0"
    stroke="yellow"
    fill="yellow"
    stroke-width="1"
    />

<circle
    cx="617.5"
    cy="221.5"
    r="54.0"
    stroke="black"
    fill="black"
    stroke-width="1"
    />

<line
    x1="678.7"
    y1="221.5"
    x2="718.3"
    y2="221.5"
    stroke="black"
    stroke-width="1"
    />

<line
    x1="677.9465264444225"
    y1="211.92621073953788"
    x2="717.0589847319899"
    y2="205.73140592394472"
    stroke="black"
    stroke-width="1"
    />

<line
    x1="675.7046587972634"
    y1="202.58815994425322"
    x2="713.3664968425514"
    y2="190.3510869670053"
    stroke="black"
    stroke-width="1"
    />

<line
    x1="672.0295992803282"
    y1="193.71578141593974"
    x2="707.3134576381875"
    y2="175.73775762625368"
    stroke="black"
    stroke-width="1"
    />

<line
    x1="667.0118400557468"
    y1="185.52754255970063"
    x2="699.0489130329947"
    y2="162.2512465689187"
    stroke="black"
    stroke-width="1"
    />

<line
    x1="660.7749350086167"
    y1="178.22506499138328"
    x2="688.776363543604"
    y2="150.223636456396"
    stroke="black"
    stroke-width="1"
    />

<line
    x1="653.4724574402993"
    y1="171.9881599442532"
    x2="676.7487534310812"
    y2="139.9510869670053"
    stroke="black"
    stroke-width="1"
    />

<line
    x1="645.2842185840602"
    y1="166.9704007196719"
    x2="663.2622423737463"
    y2="131.68654236181254"
    stroke="black"
    stroke-width="1"
    />

<line
    x1="636.4118400557468"
    y1="163.2953412027366"
    x2="648.6489130329948"
    y2="125.63350315744853"
    stroke="black"
    stroke-width="1"
    />

<line
    x1="627.0737892604621"
    y1="161.05347355557757"
    x2="633.2685940760553"
    y2="121.94101526801012"
    stroke="black"
    stroke-width="1"
    />

<line
    x1="617.5"
    y1="160.3"
    x2="617.5"
    y2="120.7"
    stroke="black"
    stroke-width="1"
    />

<line
    x1="607.9262107395379"
    y1="161.05347355557757"
    x2="601.7314059239447"
    y2="121.94101526801012"
    stroke="black"
    stroke-width="1"
    />

<line
    x1="598.5881599442532"
    y1="163.2953412027366"
    x2="586.3510869670054"
    y2="125.63350315744852"
    stroke="black"
    stroke-width="1"
    />

<line
    x1="589.7157814159398"
    y1="166.9704007196719"
    x2="571.7377576262537"
    y2="131.6865423618125"
    stroke="black"
    stroke-width="1"
    />

<line
    x1="581.5275425597007"
    y1="171.9881599442532"
    x2="558.2512465689188"
    y2="139.9510869670053"
    stroke="black"
    stroke-width="1"
    />

<line
    x1="574.2250649913833"
    y1="178.22506499138328"
    x2="546.223636456396"
    y2="150.223636456396"
    stroke="black"
    stroke-width="1"
    />

<line
    x1="567.9881599442532"
    y1="185.52754255970063"
    x2="535.9510869670053"
    y2="162.2512465689187"
    stroke="black"
    stroke-width="1"
    />

<line
    x1="562.9704007196719"
    y1="193.71578141593972"
    x2="527.6865423618125"
    y2="175.73775762625368"
    stroke="black"
    stroke-width="1"
    />

<line
    x1="559.2953412027366"
    y1="202.58815994425322"
    x2="521.6335031574486"
    y2="190.3510869670053"
    stroke="black"
    stroke-width="1"
    />

<line
    x1="557.0534735555776"
    y1="211.92621073953785"
    x2="517.9410152680101"
    y2="205.73140592394472"
    stroke="black"
    stroke-width="1"
    />

<line
    x1="556.3"
    y1="221.5"
    x2="516.7"
    y2="221.5"
    stroke="black"
    stroke-width="1"
    />

<line
    x1="557.0534735555775"
    y1="231.07378926046212"
    x2="517.9410152680101"
    y2="237.26859407605525"
    stroke="black"
    stroke-width="1"
    />

<line
    x1="559.2953412027366"
    y1="240.41184005574678"
    x2="521.6335031574486"
    y2="252.6489130329947"
    stroke="black"
    stroke-width="1"
    />

<line
    x1="562.9704007196718"
    y1="249.28421858406026"
    x2="527.6865423618125"
    y2="267.2622423737463"
    stroke="black"
    stroke-width="1"
    />

<line
    x1="567.9881599442532"
    y1="257.47245744029937"
    x2="535.9510869670053"
    y2="280.7487534310813"
    stroke="black"
    stroke-width="1"
    />

<line
    x1="574.2250649913833"
    y1="264.7749350086167"
    x2="546.223636456396"
    y2="292.77636354360396"
    stroke="black"
    stroke-width="1"
    />

<line
    x1="581.5275425597006"
    y1="271.0118400557468"
    x2="558.2512465689186"
    y2="303.0489130329947"
    stroke="black"
    stroke-width="1"
    />

<line
    x1="589.7157814159398"
    y1="276.0295992803281"
    x2="571.7377576262537"
    y2="311.31345763818746"
    stroke="black"
    stroke-width="1"
    />

<line
    x1="598.5881599442532"
    y1="279.7046587972634"
    x2="586.3510869670052"
    y2="317.36649684255144"
    stroke="black"
    stroke-width="1"
    />

<line
    x1="607.9262107395379"
    y1="281.94652644442243"
    x2="601.7314059239447"
    y2="321.0589847319899"
    stroke="black"
    stroke-width="1"
    />

<line
    x1="617.5"
    y1="282.7"
    x2="617.5"
    y2="322.3"
    stroke="black"
    stroke-width="1"
    />

<line
    x1="627.0737892604621"
    y1="281.94652644442243"
    x2="633.2685940760553"
    y2="321.0589847319899"
    stroke="black"
    stroke-width="1"
    />

<line
    x1="636.4118400557468"
    y1="279.7046587972634"
    x2="648.6489130329946"
    y2="317.3664968425515"
    stroke="black"
    stroke-width="1"
    />

<line
    x1="645.2842185840602"
    y1="276.0295992803281"
    x2="663.2622423737463"
    y2="311.3134576381875"
    stroke="black"
    stroke-width="1"
    />

<line
    x1="653.4724574402993"
    y1="271.0118400557468"
    x2="676.7487534310812"
    y2="303.04891303299473"
    stroke="black"
    stroke-width="1"
    />

<line
    x1="660.7749350086167"
    y1="264.7749350086167"
    x2="688.776363543604"
    y2="292.776363543604"
    stroke="black"
    stroke-width="1"
    />

<line
    x1="667.0118400557468"
    y1="257.47245744029937"
    x2="699.0489130329947"
    y2="280.7487534310813"
    stroke="black"
    stroke-width="1"
    />

<line
    x1="672.0295992803281"
    y1="249.28421858406028"
    x2="707.3134576381875"
    y2="267.26224237374635"
    stroke="black"
    stroke-width="1"
    />

<line
    x1="675.7046587972634"
    y1="240.4118400557468"
    x2="713.3664968425514"
    y2="252.64891303299473"
    stroke="black"
    stroke-width="1"
    />

<line
    x1="677.9465264444224"
    y1="231.07378926046215"
    x2="717.0589847319899"
    y2="237.2685940760553"
    stroke="black"
    stroke-width="1"
    />

<circle
    cx="655.6837661840735"
    cy="183.31623381592644"
    r="27.0"
    stroke="white"
    fill="white"
    stroke-width="1"
    />

<circle
    cx="579.3162338159265"
    cy="259.6837661840736"
    r="15.428571428571429"
    stroke="white"
    fill="white"
    stroke-width="1"
    />

</svg>
