<?xml version="1.0" encoding="UTF-8" standalone="no"?>

<svg
    xmlns:svg="http://www.w3.org/2000/svg"
    xmlns="http://www.w3.org/2000/svg"
    version="1.1"
    x="0px"
    y="0px"
    width="123px"
    height="345px"
    >

<rect
    x="0"
    y="0"
    width="123"
    height="345"
    stroke="black"
    fill="white"
    stroke-width="1"
    />

<text
    x="10"
    y="35"
    font-family="Arial"
    font-size="36"
    fill="black"
    font-weight="bold"
    >
    Peter J. Murphy
</text>

<ellipse
    cx="61.5"
    cy="172.5"
    rx="51.5"
    ry="20.6"
    stroke="black"
    fill="gray"
    stroke-width="1"
    />

<ellipse
    cx="61.5"
    cy="182.8"
    rx="10.3"
    ry="3.4333333333333336"
    stroke="black"
    fill="red"
    stroke-width="1"
    />

<circle
    cx="35.75"
    cy="172.5"
    r="13.733333333333334"
    stroke="green"
    fill="green"
    stroke-width="1"
    />

<circle
    cx="35.75"
    cy="172.5"
    r="6.866666666666667"
    stroke="black"
    fill="black"
    stroke-width="1"
    />

<line
    x1="43.532222222222224"
    y1="172.5"
    x2="48.56777777777778"
    y2="172.5"
    stroke="black"
    stroke-width="1"
    />

<line
    x1="43.43641015280927"
    y1="171.28259222984246"
    x2="48.40996966345057"
    y2="170.49485779032878"
    stroke="black"
    stroke-width="1"
    />

<line
    x1="43.151333155701394"
    y1="170.09516107933098"
    x2="47.940431079978765"
    y2="168.53908883654512"
    stroke="black"
    stroke-width="1"
    />

<line
    x1="42.6840107726837"
    y1="168.96694504424912"
    x2="47.17072362559668"
    y2="166.6808506611162"
    stroke="black"
    stroke-width="1"
    />

<line
    x1="42.045950031780144"
    y1="167.92572454771502"
    x2="46.11980005234377"
    y2="164.96589925506004"
    stroke="black"
    stroke-width="1"
    />

<line
    x1="41.25286210603398"
    y1="166.99713789396603"
    x2="44.813537586408906"
    y2="163.4364624135911"
    stroke="black"
    stroke-width="1"
    />

<line
    x1="40.32427545228498"
    y1="166.20404996821986"
    x2="43.28410074493997"
    y2="162.13019994765622"
    stroke="black"
    stroke-width="1"
    />

<line
    x1="39.28305495575087"
    y1="165.5659892273163"
    x2="41.56914933888379"
    y2="161.07927637440332"
    stroke="black"
    stroke-width="1"
    />

<line
    x1="38.154838920669036"
    y1="165.0986668442986"
    x2="39.71091116345488"
    y2="160.30956892002123"
    stroke="black"
    stroke-width="1"
    />

<line
    x1="36.96740777015753"
    y1="164.81358984719074"
    x2="37.75514220967123"
    y2="159.84003033654943"
    stroke="black"
    stroke-width="1"
    />

<line
    x1="35.75"
    y1="164.71777777777777"
    x2="35.75"
    y2="159.6822222222222"
    stroke="black"
    stroke-width="1"
    />

<line
    x1="34.53259222984247"
    y1="164.81358984719074"
    x2="33.74485779032877"
    y2="159.84003033654943"
    stroke="black"
    stroke-width="1"
    />

<line
    x1="33.345161079330964"
    y1="165.0986668442986"
    x2="31.78908883654512"
    y2="160.30956892002123"
    stroke="black"
    stroke-width="1"
    />

<line
    x1="32.21694504424913"
    y1="165.5659892273163"
    x2="29.93085066111621"
    y2="161.07927637440332"
    stroke="black"
    stroke-width="1"
    />

<line
    x1="31.17572454771502"
    y1="166.20404996821986"
    x2="28.215899255060034"
    y2="162.13019994765622"
    stroke="black"
    stroke-width="1"
    />

<line
    x1="30.247137893966023"
    y1="166.99713789396603"
    x2="26.686462413591098"
    y2="163.4364624135911"
    stroke="black"
    stroke-width="1"
    />

<line
    x1="29.454049968219856"
    y1="167.92572454771502"
    x2="25.38019994765623"
    y2="164.96589925506004"
    stroke="black"
    stroke-width="1"
    />

<line
    x1="28.8159892273163"
    y1="168.96694504424912"
    x2="24.32927637440332"
    y2="166.6808506611162"
    stroke="black"
    stroke-width="1"
    />

<line
    x1="28.348666844298606"
    y1="170.09516107933098"
    x2="23.55956892002123"
    y2="168.53908883654512"
    stroke="black"
    stroke-width="1"
    />

<line
    x1="28.063589847190727"
    y1="171.28259222984246"
    x2="23.090030336549432"
    y2="170.49485779032878"
    stroke="black"
    stroke-width="1"
    />

<line
    x1="27.967777777777776"
    y1="172.5"
    x2="22.932222222222222"
    y2="172.5"
    stroke="black"
    stroke-width="1"
    />

<line
    x1="28.063589847190727"
    y1="173.71740777015754"
    x2="23.090030336549432"
    y2="174.50514220967122"
    stroke="black"
    stroke-width="1"
    />

<line
    x1="28.348666844298606"
    y1="174.90483892066902"
    x2="23.559568920021228"
    y2="176.46091116345488"
    stroke="black"
    stroke-width="1"
    />

<line
    x1="28.8159892273163"
    y1="176.03305495575088"
    x2="24.32927637440332"
    y2="178.3191493388838"
    stroke="black"
    stroke-width="1"
    />

<line
    x1="29.454049968219852"
    y1="177.07427545228498"
    x2="25.38019994765623"
    y2="180.03410074493996"
    stroke="black"
    stroke-width="1"
    />

<line
    x1="30.24713789396602"
    y1="178.00286210603397"
    x2="26.686462413591094"
    y2="181.5635375864089"
    stroke="black"
    stroke-width="1"
    />

<line
    x1="31.17572454771502"
    y1="178.79595003178014"
    x2="28.21589925506003"
    y2="182.86980005234378"
    stroke="black"
    stroke-width="1"
    />

<line
    x1="32.21694504424912"
    y1="179.4340107726837"
    x2="29.930850661116207"
    y2="183.92072362559668"
    stroke="black"
    stroke-width="1"
    />

<line
    x1="33.345161079330964"
    y1="179.9013331557014"
    x2="31.789088836545115"
    y2="184.69043107997877"
    stroke="black"
    stroke-width="1"
    />

<line
    x1="34.53259222984247"
    y1="180.18641015280926"
    x2="33.74485779032877"
    y2="185.15996966345057"
    stroke="black"
    stroke-width="1"
    />

<line
    x1="35.75"
    y1="180.28222222222223"
    x2="35.75"
    y2="185.3177777777778"
    stroke="black"
    stroke-width="1"
    />

<line
    x1="36.96740777015753"
    y1="180.18641015280926"
    x2="37.75514220967122"
    y2="185.15996966345057"
    stroke="black"
    stroke-width="1"
    />

<line
    x1="38.154838920669036"
    y1="179.9013331557014"
    x2="39.71091116345488"
    y2="184.69043107997877"
    stroke="black"
    stroke-width="1"
    />

<line
    x1="39.28305495575087"
    y1="179.4340107726837"
    x2="41.56914933888379"
    y2="183.92072362559668"
    stroke="black"
    stroke-width="1"
    />

<line
    x1="40.32427545228498"
    y1="178.79595003178014"
    x2="43.28410074493996"
    y2="182.86980005234378"
    stroke="black"
    stroke-width="1"
    />

<line
    x1="41.25286210603397"
    y1="178.00286210603397"
    x2="44.8135375864089"
    y2="181.5635375864089"
    stroke="black"
    stroke-width="1"
    />

<line
    x1="42.045950031780144"
    y1="177.07427545228498"
    x2="46.11980005234377"
    y2="180.03410074493996"
    stroke="black"
    stroke-width="1"
    />

<line
    x1="42.6840107726837"
    y1="176.03305495575088"
    x2="47.17072362559668"
    y2="178.3191493388838"
    stroke="black"
    stroke-width="1"
    />

<line
    x1="43.151333155701394"
    y1="174.90483892066905"
    x2="47.940431079978765"
    y2="176.46091116345488"
    stroke="black"
    stroke-width="1"
    />

<line
    x1="43.43641015280927"
    y1="173.71740777015754"
    x2="48.40996966345057"
    y2="174.50514220967122"
    stroke="black"
    stroke-width="1"
    />

<circle
    cx="40.605466564147626"
    cy="167.64453343585237"
    r="3.4333333333333336"
    stroke="white"
    fill="white"
    stroke-width="1"
    />

<circle
    cx="30.894533435852374"
    cy="177.35546656414763"
    r="1.961904761904762"
    stroke="white"
    fill="white"
    stroke-width="1"
    />

<circle
    cx="87.25"
    cy="172.5"
    r="13.733333333333334"
    stroke="green"
    fill="green"
    stroke-width="1"
    />

<circle
    cx="87.25"
    cy="172.5"
    r="6.866666666666667"
    stroke="black"
    fill="black"
    stroke-width="1"
    />

<line
    x1="95.03222222222222"
    y1="172.5"
    x2="100.06777777777778"
    y2="172.5"
    stroke="black"
    stroke-width="1"
    />

<line
    x1="94.93641015280927"
    y1="171.28259222984246"
    x2="99.90996966345057"
    y2="170.49485779032878"
    stroke="black"
    stroke-width="1"
    />

<line
    x1="94.6513331557014"
    y1="170.09516107933098"
    x2="99.44043107997877"
    y2="168.53908883654512"
    stroke="black"
    stroke-width="1"
    />

<line
    x1="94.1840107726837"
    y1="168.96694504424912"
    x2="98.67072362559668"
    y2="166.6808506611162"
    stroke="black"
    stroke-width="1"
    />

<line
    x1="93.54595003178015"
    y1="167.92572454771502"
    x2="97.61980005234378"
    y2="164.96589925506004"
    stroke="black"
    stroke-width="1"
    />

<line
    x1="92.75286210603397"
    y1="166.99713789396603"
    x2="96.3135375864089"
    y2="163.4364624135911"
    stroke="black"
    stroke-width="1"
    />

<line
    x1="91.82427545228498"
    y1="166.20404996821986"
    x2="94.78410074493996"
    y2="162.13019994765622"
    stroke="black"
    stroke-width="1"
    />

<line
    x1="90.78305495575087"
    y1="165.5659892273163"
    x2="93.06914933888379"
    y2="161.07927637440332"
    stroke="black"
    stroke-width="1"
    />

<line
    x1="89.65483892066904"
    y1="165.0986668442986"
    x2="91.21091116345488"
    y2="160.30956892002123"
    stroke="black"
    stroke-width="1"
    />

<line
    x1="88.46740777015754"
    y1="164.81358984719074"
    x2="89.25514220967122"
    y2="159.84003033654943"
    stroke="black"
    stroke-width="1"
    />

<line
    x1="87.25"
    y1="164.71777777777777"
    x2="87.25"
    y2="159.6822222222222"
    stroke="black"
    stroke-width="1"
    />

<line
    x1="86.03259222984246"
    y1="164.81358984719074"
    x2="85.24485779032878"
    y2="159.84003033654943"
    stroke="black"
    stroke-width="1"
    />

<line
    x1="84.84516107933096"
    y1="165.0986668442986"
    x2="83.28908883654512"
    y2="160.30956892002123"
    stroke="black"
    stroke-width="1"
    />

<line
    x1="83.71694504424913"
    y1="165.5659892273163"
    x2="81.43085066111621"
    y2="161.07927637440332"
    stroke="black"
    stroke-width="1"
    />

<line
    x1="82.67572454771502"
    y1="166.20404996821986"
    x2="79.71589925506004"
    y2="162.13019994765622"
    stroke="black"
    stroke-width="1"
    />

<line
    x1="81.74713789396603"
    y1="166.99713789396603"
    x2="78.1864624135911"
    y2="163.4364624135911"
    stroke="black"
    stroke-width="1"
    />

<line
    x1="80.95404996821985"
    y1="167.92572454771502"
    x2="76.88019994765622"
    y2="164.96589925506004"
    stroke="black"
    stroke-width="1"
    />

<line
    x1="80.31598922731631"
    y1="168.96694504424912"
    x2="75.82927637440332"
    y2="166.6808506611162"
    stroke="black"
    stroke-width="1"
    />

<line
    x1="79.8486668442986"
    y1="170.09516107933098"
    x2="75.05956892002123"
    y2="168.53908883654512"
    stroke="black"
    stroke-width="1"
    />

<line
    x1="79.56358984719073"
    y1="171.28259222984246"
    x2="74.59003033654943"
    y2="170.49485779032878"
    stroke="black"
    stroke-width="1"
    />

<line
    x1="79.46777777777778"
    y1="172.5"
    x2="74.43222222222222"
    y2="172.5"
    stroke="black"
    stroke-width="1"
    />

<line
    x1="79.56358984719073"
    y1="173.71740777015754"
    x2="74.59003033654943"
    y2="174.50514220967122"
    stroke="black"
    stroke-width="1"
    />

<line
    x1="79.8486668442986"
    y1="174.90483892066902"
    x2="75.05956892002123"
    y2="176.46091116345488"
    stroke="black"
    stroke-width="1"
    />

<line
    x1="80.3159892273163"
    y1="176.03305495575088"
    x2="75.82927637440332"
    y2="178.3191493388838"
    stroke="black"
    stroke-width="1"
    />

<line
    x1="80.95404996821985"
    y1="177.07427545228498"
    x2="76.88019994765622"
    y2="180.03410074493996"
    stroke="black"
    stroke-width="1"
    />

<line
    x1="81.74713789396603"
    y1="178.00286210603397"
    x2="78.1864624135911"
    y2="181.5635375864089"
    stroke="black"
    stroke-width="1"
    />

<line
    x1="82.67572454771502"
    y1="178.79595003178014"
    x2="79.71589925506004"
    y2="182.86980005234378"
    stroke="black"
    stroke-width="1"
    />

<line
    x1="83.71694504424913"
    y1="179.4340107726837"
    x2="81.43085066111621"
    y2="183.92072362559668"
    stroke="black"
    stroke-width="1"
    />

<line
    x1="84.84516107933096"
    y1="179.9013331557014"
    x2="83.28908883654512"
    y2="184.69043107997877"
    stroke="black"
    stroke-width="1"
    />

<line
    x1="86.03259222984246"
    y1="180.18641015280926"
    x2="85.24485779032877"
    y2="185.15996966345057"
    stroke="black"
    stroke-width="1"
    />

<line
    x1="87.25"
    y1="180.28222222222223"
    x2="87.25"
    y2="185.3177777777778"
    stroke="black"
    stroke-width="1"
    />

<line
    x1="88.46740777015754"
    y1="180.18641015280926"
    x2="89.25514220967122"
    y2="185.15996966345057"
    stroke="black"
    stroke-width="1"
    />

<line
    x1="89.65483892066904"
    y1="179.9013331557014"
    x2="91.21091116345488"
    y2="184.69043107997877"
    stroke="black"
    stroke-width="1"
    />

<line
    x1="90.78305495575087"
    y1="179.4340107726837"
    x2="93.06914933888379"
    y2="183.92072362559668"
    stroke="black"
    stroke-width="1"
    />

<line
    x1="91.82427545228498"
    y1="178.79595003178014"
    x2="94.78410074493996"
    y2="182.86980005234378"
    stroke="black"
    stroke-width="1"
    />

<line
    x1="92.75286210603397"
    y1="178.00286210603397"
    x2="96.3135375864089"
    y2="181.5635375864089"
    stroke="black"
    stroke-width="1"
    />

<line
    x1="93.54595003178015"
    y1="177.07427545228498"
    x2="97.61980005234378"
    y2="180.03410074493996"
    stroke="black"
    stroke-width="1"
    />

<line
    x1="94.18401077268369"
    y1="176.03305495575088"
    x2="98.67072362559668"
    y2="178.3191493388838"
    stroke="black"
    stroke-width="1"
    />

<line
    x1="94.6513331557014"
    y1="174.90483892066905"
    x2="99.44043107997877"
    y2="176.46091116345488"
    stroke="black"
    stroke-width="1"
    />

<line
    x1="94.93641015280927"
    y1="173.71740777015754"
    x2="99.90996966345057"
    y2="174.50514220967122"
    stroke="black"
    stroke-width="1"
    />

<circle
    cx="92.10546656414763"
    cy="167.64453343585237"
    r="3.4333333333333336"
    stroke="white"
    fill="white"
    stroke-width="1"
    />

<circle
    cx="82.39453343585237"
    cy="177.35546656414763"
    r="1.961904761904762"
    stroke="white"
    fill="white"
    stroke-width="1"
    />

</svg>
